/* XPM */
static char *_851e0e163d0493af0502f95659c803d7iFPBrkotO8Vn36s[] = {
/* columns rows colors chars-per-pixel */
"50 50 170 2 ",
"   c #A2CCDD",
".  c #A1CCDD",
"X  c #A0CBDD",
"o  c #9FCBDD",
"O  c #9FCADD",
"+  c #AED3E1",
"@  c #ADD3E1",
"#  c #ADD2E1",
"$  c #ABD2E1",
"%  c #AAD1E0",
"&  c #A9D0E0",
"*  c #A8D0E0",
"=  c #A8CFE0",
"-  c #A7CFDF",
";  c #A6CEDF",
":  c #A5CEDF",
">  c #A4CEDF",
",  c #A4CDDE",
"<  c #A3CDDE",
"1  c #A2CCDE",
"2  c #A1CCDE",
"3  c #A1CBDE",
"4  c #A1CBDD",
"5  c #ACD2E1",
"6  c #B3D6E3",
"7  c #B2D6E3",
"8  c #B2D5E3",
"9  c #B1D5E3",
"0  c #B1D5E2",
"q  c #B0D5E2",
"w  c #B0D4E2",
"e  c #AFD4E2",
"r  c #AFD3E1",
"t  c #ABD1E1",
"y  c #ACD1E1",
"u  c #B7D8E5",
"i  c #B8D8E5",
"p  c #B8D9E5",
"a  c #B9D9E5",
"s  c #B6D8E5",
"d  c #B6D8E4",
"f  c #B6D7E4",
"g  c #B5D7E4",
"h  c #B5D7E3",
"j  c #B4D7E3",
"k  c #B4D6E3",
"l  c #CEE4EF",
"z  c #CFE5EF",
"x  c #D0E5F0",
"c  c #CFE5F0",
"v  c #CDE4EF",
"b  c #CCE3EE",
"n  c #CBE3EE",
"m  c #CBE3ED",
"M  c #CAE2ED",
"N  c #C8E1EC",
"B  c #C7E1EC",
"V  c #C5E0EC",
"C  c #C4DFEA",
"Z  c #C3DEE9",
"A  c #C1DDE9",
"S  c #BFDCE8",
"D  c #BDDCE8",
"F  c #BCDBE7",
"G  c #BAD9E6",
"H  c #D4E8F2",
"J  c #D4E7F2",
"K  c #D4E7F1",
"L  c #D3E7F1",
"P  c #D2E6F1",
"I  c #D1E6F0",
"U  c #CDE4EE",
"Y  c #C8E1ED",
"T  c #C5E0EB",
"R  c #C2DEEA",
"E  c #BFDDE8",
"W  c #BDDBE7",
"Q  c #BBDAE7",
"!  c #B9D9E6",
"~  c #D4E8F1",
"^  c #CDE3EE",
"/  c #C9E2ED",
"(  c #D5E8F2",
")  c #D6E8F2",
"_  c #D6E9F2",
"`  c #D7E9F2",
"'  c #D8EAF3",
"]  c #D9EBF3",
"[  c #D9EAF3",
"{  c #DBECF3",
"}  c #DCEDF4",
"|  c #DDEDF4",
" . c #DEEEF5",
".. c #DFEEF5",
"X. c #E0EFF6",
"o. c #E1EFF6",
"O. c #DAECF3",
"+. c #DAEBF3",
"@. c #D8EAF2",
"#. c #D7EAF2",
"$. c #E0EFF5",
"%. c #E2F0F6",
"&. c #E4F1F7",
"*. c #E6F2F8",
"=. c #E8F3F8",
"-. c #E8F3F9",
";. c #E9F4F9",
":. c #EAF4F9",
">. c #E3F1F6",
",. c #E1F0F6",
"<. c #DEEDF4",
"1. c #DDEEF4",
"2. c #E7F3F8",
"3. c #EBF5F9",
"4. c #EBF5FA",
"5. c #E9F3F9",
"6. c #DEEEF4",
"7. c #EBF4F9",
"8. c #E3F0F6",
"9. c #E5F2F7",
"0. c #EAF4FA",
"q. c #E9F4FA",
"w. c #E8F3FA",
"e. c #E7F3FA",
"r. c #E6F2FA",
"t. c #E4F1FB",
"y. c #E5F1F7",
"u. c #E6F2F7",
"i. c #EBF4FA",
"p. c #E1F0FB",
"a. c #DFEEFC",
"s. c #DEEEFC",
"d. c #DDEDFD",
"f. c #DCEDFD",
"g. c #DCECFD",
"h. c #DBECFD",
"j. c #DFEFFC",
"k. c #E1EFFC",
"l. c #E2F0FB",
"z. c #E3F1FB",
"x. c #E5F2FB",
"c. c #EAF5FA",
"v. c #E1EFFB",
"b. c #DDEDFC",
"n. c #E0EFFC",
"m. c #E5F2FA",
"M. c #E1F0FC",
"N. c #DEEDFC",
"B. c #E7F2F8",
"V. c #E4F1F6",
"C. c #E4F2FB",
"Z. c #DDEEFD",
"A. c #DEEFFD",
"S. c #E2F0FC",
"D. c #E0F0FC",
"F. c #E2F1FC",
"G. c #DEEEFD",
"H. c #DFEEFD",
"J. c #DFEFFD",
"K. c #E0EFFD",
"L. c #E1F0FD",
"P. c #E1F0FE",
"I. c #E2F0FE",
"U. c #E3F0FE",
"Y. c #E4F0FE",
"T. c #E5F1FE",
"R. c #E6F2FE",
"E. c #E8F3FE",
"W. c #EAF5FE",
"Q. c white",
/* pixels */
"                                                                                                    ",
"                                                                                                    ",
"                                                                                                    ",
". . . . . . . . . . . . . . . . . . . . . . . . . . . . . . . . . . . . . . . . . . . . . . . . . . ",
". . . . . . . . . . . . . . . . . . . . . . . . . . . . . . . . . . . . . . . . . . . . . . . . . . ",
"X X X X X X X X X X X X X X X X X X X X X X X X X X X X X X X X X X X X X X X X X X X X X X X X X X ",
"o o o o o o o o X o X o o X o o o o o o o o o o o X X o o o o o o o o o o o o o o o o o o o o o X X ",
"X o X o o X o o o o X o o o X o o o o X o o o o X o o o X o o X o X o o X o X o o o X o o X o X o o ",
"o o X o o o o o o o o o o X o o o o o o o o X o o o o X o o o o X o o o X o o o o X o o o o X o o o ",
"o X o o X o X o o X o o o X o X o o X o o o X o X o o X o X o o X o X o X o X o o X o X o o X o o o ",
"o o o o o o o o o o o o o o o o o o o o o X o o o o o o o o o o o o o o o o o o o o o o o o o o o X ",
"o o o o o o o o o o o o o o o o o o X o o o o o o o o X o o o o o o o o o o O o o o o o o o o o o o ",
"X X X X X X o o O o O o o o o O o O o o o o o o o o o o o X o o o o o o o o o o o o o o o o o o X o ",
"+ @ # # $ % & * = - - ; : > , < < < 1 1 2 2 3 4 4 4 X X X X X X X X X X X X X X X 4 2 1 < : - = % 5 ",
"6 6 6 6 6 6 6 6 6 6 6 7 7 8 8 8 9 0 q w e e e r + + @ # 5 5 5 t y t t t $ 5 5 @ + r e q 0 8 6 6 6 6 ",
"6 6 6 6 6 6 6 6 6 6 6 6 6 6 6 6 6 6 6 6 6 6 6 6 6 6 6 6 6 6 6 6 6 6 6 6 6 6 6 6 6 6 6 6 6 6 6 6 6 6 ",
"6 6 6 6 6 6 6 6 6 6 6 6 6 6 6 6 6 6 6 6 6 6 6 6 6 6 6 6 6 6 6 6 6 6 6 6 6 6 6 6 6 6 6 6 6 6 6 6 6 6 ",
"u u i p p p a p p p i u u s d f g h j k k 6 6 6 6 6 6 6 6 6 6 6 6 6 6 6 6 6 6 6 6 6 6 6 6 6 6 6 6 6 ",
"l z x x x x x x x x x c z l v b n m M N B V C Z A S D F G p d g k 6 6 6 6 6 6 6 6 6 6 6 6 6 6 6 6 6 ",
"H H H H H H H H H H H H H H H H H H H J J H H J K L L P I x U n Y T R E W Q ! p u d d g g j k 6 k k ",
"~ H ~ H K ~ ~ ~ ~ ~ H ~ ~ H ~ H K ~ ~ ~ ~ ~ H H H K J J J J J J J J J L L P x x z l ^ n m / N N B B ",
"K J ~ ~ K J H ~ ~ ~ H ~ ~ H ~ H K ~ H H H H ~ H H K J ~ K ~ J K J J J H H H J J ( ( ) _ ` ' ] [ ] ] ",
"( ( H H ~ ~ K J ~ ~ J H H ~ H H ~ H ~ H ~ H H ~ J ~ H H H H H H ~ ~ H J H ( _ ' ] { } |  ...X.o.o.o.",
"O.+.+.] @.#._ ( ( ( H ~ K ~ ~ ~ ~ ~ ~ H K H J H H ~ H K ~ K J ~ ~ K ( _ ] { | $.%.&.*.=.-.;.:.:.:.:.",
">.%.%.,.$...<.} { +.' #._ ( H ~ H H ~ H H H J ~ H H H J H K ~ H ( ' { 1.o.&.2.:.3.3.4.4.4.4.4.4.4.4.",
"3.4.4.:.:.5.=.*.&.%.$.6.} O.' _ ( H K ~ ~ J J J ~ H H ~ ~ H ( ' } ..&.=.:.4.4.4.4.4.4.4.3.4.4.3.4.4.",
"4.4.4.4.4.4.4.4.4.7.:.=.*.8.$.1.{ ] ` ( H H ~ H H ~ H ~ ( @.} $.9.;.4.4.4.4.3.3.4.0.q.w.e.r.t.t.t.t.",
"0.0.0.7.4.4.4.4.4.4.4.4.4.7.:.2.y.o.6.{ ' _ H K H K H _ { $.u.:.4.4.4.3.i.q.e.t.p.a.s.d.f.g.h.h.h.h.",
"s.j.a.k.l.z.x.r.w.0.c.3.3.4.4.4.4.:.=.&.$.} ] _ H ( ' | &.;.4.4.3.3.q.x.v.s.f.h.h.h.h.h.h.h.h.h.h.h.",
"h.h.h.h.h.h.h.f.b.a.n.z.m.w.0.3.3.3.4.4.:.*.,.| ] O.$.2.3.4.4.0.r.M.N.h.h.h.h.h.h.h.h.h.h.h.h.h.h.h.",
"h.h.h.h.h.h.h.h.h.h.h.h.f.b.j.l.x.w.0.3.3.4.:.B.%.V.;.4.3.q.t.a.f.h.h.h.h.h.h.h.h.h.h.h.h.h.h.h.h.h.",
"f.f.f.f.f.f.f.f.f.f.f.f.f.f.f.f.f.s.M.t.w.0.4.3.7.7.3.0.C.j.f.f.f.f.f.f.f.f.f.f.f.f.f.f.f.f.f.f.f.f.",
"Z.Z.Z.Z.Z.Z.Z.Z.Z.Z.Z.Z.Z.Z.Z.Z.Z.Z.Z.Z.A.S.x.q.4.4.e.D.Z.Z.Z.Z.Z.Z.Z.Z.Z.Z.Z.Z.Z.Z.Z.Z.Z.Z.Z.Z.Z.Z.",
"Z.Z.Z.Z.Z.Z.Z.Z.Z.Z.Z.Z.Z.Z.Z.Z.Z.Z.Z.Z.Z.Z.Z.n.z.F.G.Z.Z.Z.Z.Z.Z.Z.Z.Z.Z.Z.Z.Z.Z.Z.Z.Z.Z.Z.Z.Z.Z.Z.",
"G.G.G.G.G.G.G.G.G.G.G.G.G.G.G.G.G.G.G.G.G.G.G.G.G.G.G.G.G.G.G.G.G.G.G.G.G.G.G.G.G.G.G.G.G.G.G.G.G.G.",
"H.H.H.H.H.H.H.H.H.H.H.H.H.H.H.H.H.H.H.H.H.H.H.H.H.H.H.H.H.H.H.H.H.H.H.H.H.H.H.H.H.H.H.H.H.H.H.H.H.H.",
"J.H.H.H.J.H.J.J.H.J.H.J.H.K.K.H.K.H.H.H.H.H.H.H.H.H.H.H.H.H.H.H.H.H.H.H.H.H.H.H.H.H.H.H.H.H.H.H.H.J.",
"L.L.L.L.L.L.L.L.L.L.L.L.L.L.L.L.L.L.L.L.L.L.L.L.L.L.L.L.L.L.L.L.L.L.L.L.L.L.L.L.L.L.L.L.L.L.L.L.L.L.",
"L.L.L.L.L.L.L.L.L.L.L.L.L.L.L.L.L.L.L.L.L.L.L.L.L.L.L.L.L.L.L.L.L.L.L.L.L.L.L.L.L.L.L.L.L.L.L.L.L.L.",
"P.P.P.P.P.P.P.P.P.P.P.P.P.P.P.P.P.P.P.P.P.P.P.P.P.P.P.P.P.P.P.P.P.P.P.P.P.P.P.P.P.P.P.P.P.P.P.P.P.P.",
"I.I.I.I.I.I.I.I.I.I.I.I.I.I.I.I.I.I.I.I.I.I.I.I.I.I.I.I.I.I.I.I.I.I.I.I.I.I.I.I.I.I.I.I.I.I.I.I.I.I.",
"U.U.U.U.U.U.U.U.U.U.U.U.U.U.U.U.U.U.U.U.U.U.U.U.U.U.U.U.U.U.U.U.U.U.U.U.U.U.U.U.U.U.U.U.U.U.U.U.U.U.",
"Y.Y.Y.Y.Y.Y.Y.Y.Y.Y.Y.Y.Y.Y.Y.Y.Y.Y.Y.Y.Y.Y.Y.Y.Y.Y.Y.Y.Y.Y.Y.Y.Y.Y.Y.Y.Y.Y.Y.Y.Y.Y.Y.Y.Y.Y.Y.Y.Y.Y.",
"T.T.T.T.T.T.T.T.T.T.T.T.T.T.T.T.T.T.T.T.T.T.T.T.T.T.T.T.T.T.T.T.T.T.T.T.T.T.T.T.T.T.T.T.T.T.T.T.T.T.",
"R.R.R.R.R.R.R.R.R.R.R.R.R.R.R.R.R.R.R.R.R.R.R.R.R.R.R.R.R.R.R.R.R.R.R.R.R.R.R.R.R.R.R.R.R.R.R.R.R.R.",
"R.R.R.R.R.R.R.R.R.R.R.R.R.R.R.R.R.R.R.R.R.R.R.R.R.R.R.R.R.R.R.R.R.R.R.R.R.R.R.R.R.R.R.R.R.R.R.R.R.R.",
"E.E.E.E.E.E.E.E.E.E.E.E.E.E.E.E.E.E.E.E.E.E.E.E.E.E.E.E.E.E.E.E.E.E.E.E.E.E.E.E.E.E.E.E.E.E.E.E.E.E.",
"E.E.E.E.E.E.E.E.E.E.E.E.E.E.E.E.E.E.E.E.E.E.E.E.E.E.E.E.E.E.E.E.E.E.E.E.E.E.E.E.E.E.E.E.E.E.E.E.E.E.",
"W.W.W.W.W.W.W.W.W.W.W.W.W.W.W.W.W.W.W.W.W.W.W.W.W.W.W.W.W.W.W.W.W.W.W.W.W.W.W.W.W.W.W.W.W.W.W.W.W.W.",
"W.W.W.W.W.W.W.W.W.W.W.W.W.W.W.W.W.W.W.W.W.W.W.W.W.W.W.W.W.W.W.W.W.W.W.W.W.W.W.W.W.W.W.W.W.W.W.W.W.W."
};
