/* XPM */
static char *download1686409561[] = {
/* columns rows colors chars-per-pixel */
"50 50 52 1 ",
"  c #1F5500",
". c #1F5A00",
"X c #205600",
"o c #245C03",
"O c #295F07",
"+ c #275F08",
"@ c #295E09",
"# c #1F6000",
"$ c #256203",
"% c #296206",
"& c #276802",
"* c #2E6907",
"= c #266208",
"- c #2D640C",
"; c #2D6A0A",
": c #326C07",
"> c #30670E",
", c #326B0E",
"< c #2F700C",
"1 c #33720D",
"2 c #39710E",
"3 c #2E6511",
"4 c #2E6E10",
"5 c #316611",
"6 c #346C12",
"7 c #386E15",
"8 c #376E19",
"9 c #396E1A",
"0 c #367213",
"q c #397315",
"w c #377813",
"e c #3A7A16",
"r c #367218",
"t c #3C741A",
"y c #3D7A1A",
"u c #3E7420",
"i c #3F7B21",
"p c #40771D",
"a c #417B1D",
"s c #407620",
"d c #447B22",
"f c #497F27",
"g c #477D29",
"h c #497D28",
"j c #3F811B",
"k c #42831D",
"l c #468322",
"z c #498623",
"x c #478822",
"c c #4A8925",
"v c #4D8A29",
"b c #518E2D",
/* pixels */
"5rtrqsstp0>>2qpqp6587-+-,7pqq7:>jjxcjjwwr4400tqtqq",
"-5>->tayt7*-,wqqp6567-o%%,,227qqwjjjjjwww0<000qwpp",
"+++o-9datq**,7qqr8565-++O->>>7qpjjjjjejjq0w00001ak",
"--=+-rpdpq>*:720t6695-%->>:>>2qwjjkjjjwjwwr0066;aa",
"65-->qttpq>>:72q76rr65;>,7wq1q,21ww<000000206;67qp",
"r63;5077qq7,,27779rtrr666qqqq22,;;<<<<10;07060602q",
"r8--567707,,772,6tttq664,qqq0001<<&<<<0w;6r76,677q",
"r8--67qq7,72,,,,0ritr70*0qe0000,0<<<;;;100qr0>>,7q",
"r6667;;>>,>>,paadytyw-$$,vvbz,1200ww0qqy6:>>87p9tt",
"u8586657*-**,qkzdrryr-$=,vbbv6,100wrwett6>>>69p9qt",
"tr565>>,*>-*:pfkly0r0*$$,ccbc21<wq0rqtyp,>->7ppptt",
"t66r0>>>>7,,2pakit000;&;1czcx0www000qtty,>->879ptt",
"urqr9>%O-0qpqapaw;;40eeywczzzeka07,07qp76>%>599977",
"sr9tq>%$O7epaapyr4;;0reryckkzekxw,;,0qpp5>O-5875r6",
"ur9r65-%%7qppppwy4;=;000ezykkekaw6,,qtpp6>--556699",
"s96665>>-qptqq22;=$$;wytwleek1w2q0,>qppp6>>-3865tt",
"sp@>5565979777663-o.>dhpp777q72,q,,7qadd65556336tt",
"hp5>7p6955ps97755-o Oshphpppp7767,>0tddh75;63333pt",
"s9--5565597975>>>--o-psspp979776,,>,qpdd6--343337q",
"p>ooO@>>>57975>>->65697786>6668,7,,7qttr3==-3333--",
"p@X XOO,O>666>-@%577777765>5>676,,,,7777-+o=3336oo",
"5>oXoO>6>>666;@->566687pp7556667>,,777r7-oo-3-36OO",
"p:@->>>2>26p>,>;,,67,,675>3@55665,77rqtr;---3;36>>",
">>>>7,>>566667>,>,777>OOoooo@@>>7qqqq79r65333333>,",
"->*>,76>>,77>,*5:p>26>OOOoXo@5557qptqq7t66666633>>",
">>>>,,>>56076077>>p:66,>OO@@@333,0qq779r66663333%%",
"p2,2002,6wytqq00p:6pp2pppp998335>>,777rq6633333366",
"pp7pqr000tytyqqq:p6:ppppsshss955*>*>>7rq848433@-pp",
"yrrtq0>,6wyaeq22p:p:ppppuggg9553,>--578q8453--3@7p",
"peqya0,,;0yapqq2p::-,ppp9u9995855*%*>qr936653-3-7p",
"zylzlw;;;0ykeeppp:>:6p9999999999>*o%,qrt6536-33>7p",
"cjyzl1&&*0yaye2pppO-6595983389uu-oo%>qyt5463553>66",
"ekkxj1&#&wyqyyytw;-377rt766899s9O%OO>qqq>->>-55-rq",
"wwkkew1<<wew0qytr0;46;6765535999>,:*,qqqqqrrr9rr53",
"<1jjjjee0ew1,qqyy0660,6r75555997q2q27qtqptasyust--",
"&<jkjjwwww,,,weyr00rrr6r66565799qpppqqq6ppptuuuu3-",
"&wejjirye11:21q2000rr;>>;5565659,qqq7qq7paattttu33",
"www4relzke::11:110006-$+---33533>::>:qq77r60666633",
"jw444jxvze:22:::16rr;$o $---@@53>>%*,7t76>>>-;--@3",
"er44rjlckq**22:1,;rw6-++---3@-33@%OO,tp777,75>5;33",
"ir3;0yppp2:2222:04003;--5>555@@5-*>,7qpt>,,>>6>633",
"i6=$-007qqppp22py006rtpr97ss9555-,657ttttqq7qqqq53",
"r4$.o=,,:qaapppat054wysidpssp5556666qttqqtqqq07q33",
"r;=$=;:,,qaap2pay064rtttpt99753599669patq6q0q,77--",
"01;,>,27p:>p:p2pwtyttttt97565@3353-36tttqq2aqeqq66",
";;rw7,2,>p>>:2p>,ydlyttp65555>@3@$o+-7r7ppapppqprq",
"*:0wp:::p>@->55p6ryditttq5-55@@>+ooo-776qpwpqp2q6q",
"*,wq2p>p>>-Op5p6yydsyyrqq6->>>@@3=oo>qq2qepapeqe07",
"0qalytr7q5>>5>->*-**>2p2papkp%>>577>yapaq00wqake2,",
"1eydat70q>>77--->***:pa2paakp%>:>77,qaeyqw21ejjy17"
};
