/* XPM */
static char *result[] = {
/* columns rows colors chars-per-pixel */
"50 50 96 2 ",
"   c #1C1C1C",
".  c #1D1D20",
"X  c #242424",
"o  c #25262A",
"O  c #27282A",
"+  c #292929",
"@  c #322F24",
"#  c #343327",
"$  c #3A3722",
"%  c #3C3A26",
"&  c #2F2F30",
"*  c #353535",
"=  c #3D3D3D",
"-  c #403E25",
";  c #665C1E",
":  c #685E1D",
">  c #73691B",
",  c #7A6D1A",
"<  c #444025",
"1  c #4C4723",
"2  c #4F4923",
"3  c #534D22",
"4  c #5C5520",
"5  c #4F4C3A",
"6  c #424243",
"7  c #4D4D4D",
"8  c #505050",
"9  c #746E4A",
"0  c #646461",
"q  c #6B6B6C",
"w  c #737374",
"e  c #7C7C7D",
"r  c #8D7D17",
"t  c #837619",
"y  c #928216",
"u  c #A59113",
"i  c #A89512",
"p  c #BAA30F",
"a  c #D4B709",
"s  c #D4B90A",
"d  c #DABC09",
"f  c #DEC108",
"g  c #E3C507",
"h  c #EBCB06",
"j  c #E1C308",
"k  c #F6D304",
"l  c #FAD603",
"z  c #FDD803",
"x  c #FAD709",
"c  c #EACB13",
"v  c #FAD817",
"b  c #FAD919",
"n  c #E8CA20",
"m  c #FADB26",
"M  c #FADB2B",
"N  c #FADC35",
"B  c #928740",
"V  c #848069",
"C  c #C4B450",
"Z  c #FADF4B",
"A  c #FBE256",
"S  c #F3DD65",
"D  c #EBDB7F",
"F  c #828283",
"G  c #8D8D8E",
"H  c #99978A",
"J  c #9B998F",
"K  c #939394",
"L  c #9D9B93",
"P  c #B8B191",
"I  c #BBBBBC",
"U  c #C2BFB0",
"Y  c #EDDE8B",
"T  c #FAE885",
"R  c #FBEA89",
"E  c #FBEB96",
"W  c #FCEFAB",
"Q  c gray78",
"!  c #CECECE",
"~  c #CFCFD0",
"^  c #D2D2D3",
"/  c #E6E1C3",
"(  c #FBF1C2",
")  c #FBF3CD",
"_  c #EDE9D5",
"`  c #FBF4D3",
"'  c #FAF6DF",
"]  c #DDDEE0",
"[  c #E2E2E2",
"{  c #EDEEEF",
"}  c #FBF6E0",
"|  c #FDF9E3",
" . c #FAF7EA",
".. c #FDFAEB",
"X. c #FBFCFE",
"o. c None",
/* pixels */
"o.o.o.o.o.o.o.o.o.o.o.o.o.o.o.o.o.o.o.o.o.o.o.o.o.o.o.o.o.o.o.o.o.o.o.o.o.o.o.o.o.o.o.o.o.o.o.o.o.o.",
"o.o.o.o.o.o.o.o.o.o.o.o.o.o.o.o.o.o.o.o.o.o.o.o.o.o.o.o.o.o.o.o.o.o.o.o.o.o.o.o.o.o.o.o.o.o.o.o.o.o.",
"o.o.o.o.o.o.o.o.o.o.o.o.o.o.o.o.o.o.o.o.o.o.o.o.o.o.o.o.o.o.o.o.o.o.o.o.o.o.o.o.o.o.o.o.o.o.o.o.o.o.",
"o.o.o.o.o.o.o.o.o.o.o.o.o.o.o.o.o.o.o.o.o.o.o.o.o.o.o.o.o.o.o.o.o.o.o.o.o.o.o.o.o.o.o.o.o.o.o.o.o.o.",
"o.o.o.o.o.o.o.o.o.o.o.o.o.o.o.o.o.o.o.o.o.o.o.o.o.o.o.o.o.o.o.o.o.o.o.o.o.o.o.o.o.o.o.o.o.o.o.o.o.o.",
"o.o.o.o.o.o.o.o.o.o.o.o.o.o.o.o.o.o.X O O X X O O X O O O O O X o.o.o.o.o.o.o.o.o.o.o.o.o.o.o.o.o.o.",
"o.o.o.o.o.o.o.o.o.o.o.o.o.o.o.o.o.  O + * * * * * * * & + + + + o.o.o.o.o.o.o.o.o.o.o.o.o.o.o.o.o.o.",
"o.o.o.o.o.o.o.o.o.o.o.o.o.X . X X X O = I ! ! ! ! ! ~ e + + + + X X X X X o.o.o.o.o.o.o.o.o.o.o.o.o.",
"o.o.o.o.o.o.o.o.o.o.o.o.o.X + + X O X 6 [ X.X.X.X.X.X.K o O O o + + + + + o.o.o.o.o.o.o.o.o.o.o.o.o.",
"o.o.o.o.o.o.o.o.o.o.o.o.X + * F G G G J Y R R T R R R C r r r r 4 O + + + o.o.o.o.o.o.o.o.o.o.o.o.o.",
"o.o.o.o.o.o.o.o.o.o.X X + X 6 [ X.X.X.| m l k k l l l z z z z z r O O O + o.o.o.o.o.o.o.o.o.o.o.o.o.",
"o.o.o.o.o.o.o.o.o.o.X + = 8 0 / ` ` ` ( Z N N M N N N c a d k z u 1 1 & + . o.o.o.o.o.o.o.o.o.o.o.o.",
"o.o.o.o.o.o.o.o.o.o.X X G { _ N v v v N `  . . . .| ..H @ 1 j l k h a - O + X   o.o.o.o.o.o.o.o.o.o.",
"o.o.o.o.o.o.o.o.o.o.X X K X.' m l l z m } X.X.X.X.X.X.K O - g l l z j - O + + X o.o.o.o.o.o.o.o.o.o.",
"o.o.o.o.o.o.o.o.X X X O K X.' m l l l m } X.W Z A A A B O - j z z z g - O + + X o.o.o.o.o.o.o.o.o.o.",
"o.o.o.o.o.o.o.o.X + X X K X.| m l l l m } X.T k l l z r o - g l l z g - O + + X o.o.o.o.o.o.o.o.o.o.",
"o.o.o.o.o.o.o.o.+ * q w P W E b l l l m ' X.T l l l z y O - j z l z h t > 2 O O o.o.o.o.o.o.o.o.o.o.",
"o.o.o.o.o.o.o.o.X 6 ] X.T l l l l l l m } X.T k k l z y O % j l l x l l l y O + O X o.o.o.o.o.o.o.o.",
"o.o.o.o.o.o.o.o.X 6 [ X.T l l l l z l m ' X.T l k z z y O - g z l z x l z y o + + O o.o.o.o.o.o.o.o.",
"o.o.o.o.o.o.o.o.X 6 ] X.T l l l l l l m ' X.T l l k z r o - j z l z l l z y O + + + o.o.o.o.o.o.o.o.",
"o.o.o.o.o.o.o.  + 6 [ X.T k l l z l l m ' X.T l l l z y o % g z l z l l z y O + + + o.o.o.o.o.o.o.o.",
"o.o.o.o.o.o.o.  X 6 [ X.T l l l l z l m } X.T l l k z y o % j z l z x l z y O + + + o.o.o.o.o.o.o.o.",
"o.o.o.o.o.o.o.  X 6 [ X.T l l l l x l m } X.T l l k z y O < j z l x z x z y O + + + o.o.o.o.o.o.o.o.",
"o.o.o.o.o.o.o.  X 6 [ X.T l l l z l l m } X.T l x l z y o % f z z l l z z y O + + + o.o.o.o.o.o.o.o.",
"o.o.o.o.o.o.o.  O 6 [ X.T l l l l l l m ' X.T l l l z y o - j z z x l l z y O + + X o.o.o.o.o.o.o.o.",
"o.o.o.o.o.o.o.  X 6 [ X.T l l l l l l m ' X.T l l k l y o % j z l l z l z y O + + + o.o.o.o.o.o.o.o.",
"o.o.o.o.o.o.o.  O 6 [ X.T l l l z l l m ' X.T k l l z y o - j z x z l l l y o + + + o.o.o.o.o.o.o.o.",
"o.o.o.o.o.o.o.  X 6 [ X.T l l l l z k m ' X.T l l x z y o - j l l l l x z y o + + + o.o.o.o.o.o.o.o.",
"o.o.o.o.o.o.o.  X 6 [ X.T l l l l l l m } X.T l l k z y o - j l l l l l l y O + + + o.o.o.o.o.o.o.o.",
"o.o.o.o.o.o.o.o.o 6 [ X.T l l l x z l m } X.T k l l z y o % j l l l l l z y O + + + o.o.o.o.o.o.o.o.",
"o.o.o.o.o.o.o.o.o 6 Q ] Y m m x l l l m } X.T l l l z y O - j l l l k j j t O O X X o.o.o.o.o.o.o.o.",
"o.o.o.o.o.o.o.o.o & = - L  .) m l z l m } X.T l l x z r o - j z l z g 3 % # + X o.o.o.o.o.o.o.o.o.o.",
"o.o.o.o.o.o.o.o.X O O X K X.' m l l l m ' X.T k l l l r o - j l x l j - O + + X o.o.o.o.o.o.o.o.o.o.",
"o.o.o.o.o.o.o.o.o.o.X O K X.' m l l l c V w 9 > > > > 3 o - j l l z j < O + + X o.o.o.o.o.o.o.o.o.o.",
"o.o.o.o.o.o.o.o.o.o.X O L X.' m l l l j $ X X o X o o o o % j l z z g < O + + X o.o.o.o.o.o.o.o.o.o.",
"o.o.o.o.o.o.o.o.o.o.X X w I U S A M l h , : ; : ; : ; ; ; , h z d p i % O X     o.o.o.o.o.o.o.o.o.o.",
"o.o.o.o.o.o.o.o.o.o.X + + + 6 [ X.R l l l k k k k k k l l k l z y + + + + o.o.o.o.o.o.o.o.o.o.o.o.o.",
"o.o.o.o.o.o.o.o.o.o.. X X + 6 ^ { D h h k l l l z k l k h h h h r O + + + o.o.o.o.o.o.o.o.o.o.o.o.o.",
"o.o.o.o.o.o.o.o.o.o.o.o.  + & 7 8 5 1 ; g l l l k k z u 1 3 2 3 % + + + + o.o.o.o.o.o.o.o.o.o.o.o.o.",
"o.o.o.o.o.o.o.o.o.o.o.o.o.X + + X O O - g z l l z z z y o o o o + O + O + o.o.o.o.o.o.o.o.o.o.o.o.o.",
"o.o.o.o.o.o.o.o.o.o.o.o.o.o.o.o.o.X O # t r r r r r r 4 + + + + X o.o.o.o.o.o.o.o.o.o.o.o.o.o.o.o.o.",
"o.o.o.o.o.o.o.o.o.o.o.o.o.o.o.o.o.o.X + O O O O O O O X + + + + o.o.o.o.o.o.o.o.o.o.o.o.o.o.o.o.o.o.",
"o.o.o.o.o.o.o.o.o.o.o.o.o.o.o.o.o.o.  X X X X X X X X X X X X X o.o.o.o.o.o.o.o.o.o.o.o.o.o.o.o.o.o.",
"o.o.o.o.o.o.o.o.o.o.o.o.o.o.o.o.o.o.o.o.o.o.o.o.o.o.o.o.o.o.o.o.o.o.o.o.o.o.o.o.o.o.o.o.o.o.o.o.o.o.",
"o.o.o.o.o.o.o.o.o.o.o.o.o.o.o.o.o.o.o.o.o.o.o.o.o.o.o.o.o.o.o.o.o.o.o.o.o.o.o.o.o.o.o.o.o.o.o.o.o.o.",
"o.o.o.o.o.o.o.o.o.o.o.o.o.o.o.o.o.o.o.o.o.o.o.o.o.o.o.o.o.o.o.o.o.o.o.o.o.o.o.o.o.o.o.o.o.o.o.o.o.o.",
"o.o.o.o.o.o.o.o.o.o.o.o.o.o.o.o.o.o.o.o.o.o.o.o.o.o.o.o.o.o.o.o.o.o.o.o.o.o.o.o.o.o.o.o.o.o.o.o.o.o.",
"o.o.o.o.o.o.o.o.o.o.o.o.o.o.o.o.o.o.o.o.o.o.o.o.o.o.o.o.o.o.o.o.o.o.o.o.o.o.o.o.o.o.o.o.o.o.o.o.o.o.",
"o.o.o.o.o.o.o.o.o.o.o.o.o.o.o.o.o.o.o.o.o.o.o.o.o.o.o.o.o.o.o.o.o.o.o.o.o.o.o.o.o.o.o.o.o.o.o.o.o.o.",
"o.o.o.o.o.o.o.o.o.o.o.o.o.o.o.o.o.o.o.o.o.o.o.o.o.o.o.o.o.o.o.o.o.o.o.o.o.o.o.o.o.o.o.o.o.o.o.o.o.o."
};
