/* XPM */
static char *result[] = {
/* columns rows colors chars-per-pixel */
"50 50 226 2 ",
"   c #010100",
".  c #0D0D0C",
"X  c #090708",
"o  c #1B0C05",
"O  c #120C0B",
"+  c #180B07",
"@  c #13110F",
"#  c #1B130D",
"$  c #0B0B13",
"%  c #120E13",
"&  c #121214",
"*  c #1D1C1C",
"=  c #191718",
"-  c #230B08",
";  c #39090A",
":  c #231205",
">  c #281607",
",  c #3C1D04",
"<  c #381A0A",
"1  c #261A13",
"2  c #241D1C",
"3  c #2B1C17",
"4  c #331717",
"5  c #3F0F10",
"6  c #3C2108",
"7  c #3B271B",
"8  c #21271D",
"9  c #0B1426",
"0  c #151828",
"q  c #161636",
"w  c #0B1C35",
"e  c #211538",
"r  c #381E39",
"t  c #221E20",
"y  c #162438",
"u  c #222223",
"i  c #2B2A2A",
"p  c #2A2726",
"a  c #352827",
"s  c #39332B",
"d  c #333435",
"f  c #393936",
"g  c #410B0A",
"h  c #4A0A09",
"j  c #550B0C",
"k  c #411E05",
"l  c #4E120C",
"z  c #490E10",
"x  c #5C0D13",
"c  c #520B12",
"v  c #581617",
"b  c #471416",
"n  c #630A0C",
"m  c #74070A",
"M  c #760C12",
"N  c #671315",
"B  c #761317",
"V  c #65100B",
"C  c #442104",
"Z  c #4C2403",
"A  c #4A2507",
"S  c #522601",
"D  c #542904",
"F  c #5C2C02",
"G  c #562807",
"H  c #5F3103",
"J  c #452716",
"K  c #57391A",
"L  c #5E251F",
"P  c #622E02",
"I  c #603102",
"U  c #551C21",
"Y  c #4A162E",
"T  c #462527",
"R  c #532A28",
"E  c #493B26",
"W  c #4D3830",
"Q  c #702723",
"!  c #745610",
"~  c #5B4836",
"^  c #474037",
"/  c #755637",
"(  c #6F523A",
")  c #656133",
"_  c #0F295A",
"`  c #1C2956",
"'  c #12294D",
"]  c #212944",
"[  c #23395A",
"{  c #332F52",
"}  c #122868",
"|  c #0E3468",
" . c #273564",
".. c #213970",
"X. c #2A427F",
"o. c #494847",
"O. c #524F4C",
"+. c #6B5545",
"@. c #745640",
"#. c #665855",
"$. c #71665B",
"%. c #6B5E66",
"&. c #5E6260",
"*. c #656464",
"=. c #7A746A",
"-. c #69777A",
";. c #940B14",
":. c #8C1114",
">. c #9A1516",
",. c #8C0305",
"<. c #AA0C0C",
"1. c #B90808",
"2. c #A61318",
"3. c #B41214",
"4. c #BC1418",
"5. c #AB1012",
"6. c #8C1B21",
"7. c #952428",
"8. c #C20506",
"9. c #CB0405",
"0. c #CD090B",
"q. c #C70A09",
"w. c #D40303",
"e. c #D90404",
"r. c #D10709",
"t. c #C7130E",
"y. c #C21111",
"u. c #C7161B",
"i. c #865A36",
"p. c #B4413F",
"a. c #8E633C",
"s. c #8B7917",
"d. c #9B7552",
"f. c #8D6949",
"g. c #A97A53",
"h. c #AC754E",
"j. c #877A68",
"k. c #937D68",
"l. c #897D76",
"z. c #CE4D4F",
"x. c #E56D6A",
"c. c #728273",
"v. c #8E882F",
"b. c #DCB01C",
"n. c #F4E134",
"m. c #BF874F",
"M. c #BA8655",
"N. c #A78050",
"B. c #898173",
"V. c #968676",
"C. c #9C8567",
"Z. c #A58D6A",
"A. c #A4927D",
"S. c #BA9E78",
"D. c #BE9365",
"F. c #BAA37A",
"G. c #C28853",
"H. c #D79858",
"J. c #E39B55",
"K. c #DCA05E",
"L. c #CD9E71",
"P. c #D8A476",
"I. c #DAA365",
"U. c #F4AE66",
"Y. c #F0AE6F",
"T. c #174582",
"R. c #14519B",
"E. c #154395",
"W. c #1E48AD",
"Q. c #0F5CAD",
"!. c #145AAA",
"~. c #1658B7",
"^. c #194CB6",
"/. c #2544AD",
"(. c #1460B7",
"). c #1C5CCD",
"_. c #2057DB",
"`. c #2148C4",
"'. c #1765CB",
"]. c #2064D4",
"[. c #295BE7",
"{. c #255FF1",
"}. c #2564EB",
"|. c #2A63F4",
" X c #2A62FC",
".X c #2663F4",
"XX c #3060FB",
"oX c #868685",
"OX c #989897",
"+X c #938E87",
"@X c #B29983",
"#X c #AA9780",
"$X c #ADA397",
"%X c #A9AAA9",
"&X c #B7B7B7",
"*X c #D2AC83",
"=X c #C7B396",
"-X c #CCB18D",
";X c #E4BA8C",
":X c #CCB4A4",
">X c #E9B3AF",
",X c #FFC98C",
"<X c #FACC98",
"1X c #FDD29C",
"2X c #EFC998",
"3X c #C3C1BF",
"4X c #E7CCAD",
"5X c #F4CFA9",
"6X c #FCD7A8",
"7X c #E5CFB1",
"8X c #EFD7B1",
"9X c #FBDEBC",
"0X c #F8DBB8",
"qX c #E9D1AD",
"wX c #FDE2BC",
"eX c #C3C3C2",
"rX c #CFC9C8",
"tX c #CED1CC",
"yX c #DADBD9",
"uX c #ECD0CD",
"iX c #FCE3C1",
"pX c #F7E0C1",
"aX c #FBFBFC",
"sX c #F5F5F5",
"dX c #E5E5E5",
"fX c None",
/* pixels */
"fXfXfXfXfXfXfXfXfXfXfXfXfXfXfXfXfXfXfXfXfXfXfXfXfXfXfXfXfXfXfXfXfXfXfXfXfXfXfXfXfXfXfXfXfXfXfXfXfXfX",
"fXfXfXfXfXfXfXfXfXfXfXfXfXfXfXfXfXfXfXfXfXfXfXfXfXfXfXfXfXfXfXfXfXfXfXfXfXfXfXfXfXfXfXfXfXfXfXfXfXfX",
"fXfXfXfXfXfXfXfXfXfXfXfXfXfXfXfXfXfXfXfXfXfXfXfX= . . . # % fXfXfXfXfXfXfXfXfXfXfXfXfXfXfXfXfXfXfXfX",
"fXfXfXfXfXfXfXfXfXfXfXfXfXfXfXfXfXfXfXfXfXfXfX3 v m m m m m T fXfXfXfXfXfXfXfXfXfXfXfXfXfXfXfXfXfXfX",
"fXfXfXfXfXfXfXfXfXfXfXfXfXfXfXfXfXfXfXfXfXT x m y.e.0.;.,.,.M R fXfXfXfXfXfXfXfXfXfXfXfXfXfXfXfXfXfX",
"fXfXfXfXfXfXfXfXfXfXfXfXfXfXfXfXfXfXfXfXa N 4.r.e.y.:.#.&.%.7.M T fXfXfXfXfXfXfXfXfXfXfXfXfXfXfXfXfX",
"fXfXfXfXfXfXfXfXfXfXfXfXfXfXfXfXfXfXfXa N y.w.e.r.6.#.uXuX>XW ;.j fXfXfXfXfXfXfXfXfXfXfXfXfXfXfXfXfX",
"fXfXfXfXfXfXfXfXfXfXfXfXfXfXfXfXfXfXW v 4.w.e.w.8.a rXuXx.z.Q B 5 i fXfXfXfXfXfXfXfXfXfXfXfXfXfXfXfX",
"fXfXfXfXfXfXfXfXfXfXfXfXfXfXfXfXfXfXc r.e.w.w.e.1.4 %Xz.%XrXp.n ; g W fXfXfXfXfXfXfXfXfXfXfXfXfXfXfX",
"fXfXfXfXfXfXfXfXfXfXfXfXfXfXfXfXfXa V w.w.w.9.1.>.4 4 5 5 7 5 ;.8.4.B 4 a fXfXfXfXfXfXfXfXfXfXfXfXfX",
"fXfXfXfXfXfXfXfXfXfXfXfXfXfXfXfXfXv 3.w.w.0.>.; g 2.1.8.8.1.8.r.8.8.1.2.U 2 fXfXfXfXfXfXfXfXfXfXfXfX",
"fXfXfXfXfXfXfXfXfXfXfXfXfXfXfXfXb 3.w.e.q.>.x 2.1.r.r.0.9.r.9.3.n ; ; - - t fXfXfXfXfXfXfXfXfXfXfXfX",
"fXfXfXfXfXfXfXfXfXfXfXfXfXfXfX& j r.w.0.>.V <.0.0.2.x ; ; g g ; o X X X * fXfXfXfXfXfXfXfXfXfXfXfXfX",
"fXfXfXfXfXfXfXfXfXfXfXfXfXfXfX# n e.0.>.V 5.2.j h U h.M.G.G.G.G.G.E & fXfXfXfXfXfXfXfXfXfXfXfXfXfXfX",
"fXfXfXfXfXfXfXfXfXfXfXfXfXfXU ;.1.w.<.x >.2.Q g.F.A./ ;X6X1X<Xf.L.+.% fXfXfXfXfXfXfXfXfXfXfXfXfXfXfX",
"fXfXfXfXfXfXfXfXfXfXfXfXfXv 2.t.y.y.:.- l L N.<XwXqXW :X0X,Xj.u f i $ fXfXfXfXfXfXfXfXfXfXfXfXfXfXfX",
"fXfXfXfXfXfXfXfXfXfXfXfX@ N u.2.x x z > > 7 Y.wXwX4XW :XwXd.a.k.V.V.V.*.fXfXfXfXfXfXfXfXfXfXfXfXfXfX",
"fXfXfXfXfXfXfXfXfXfXfXfXfXR N Q f.j.+.6 G G d.8XwX8XA.7X8XN.P.0XwXwXwXL.+.fXfXfXfXfXfXfXfXfXfXfXfXfX",
"fXfXfXfXfXfXfXfXfXfXfXfXfXf J Z.*X$X$X> S k s qXwXiXiXwXiX1X0X9XpX9X9X<Xa.= fXfXfXfXfXfXfXfXfXfXfXfX",
"fXfXfXfXfXfXfXfXfXfXfXfXfXd / ,XA.+.*X~ < : s qX2X#XA.A.A.A.;X0XiXpX6XP.( fXfXfXfXfXfXfXfXfXfXfXfXfX",
"fXfXfXfXfXfXfXfXfXfXfXfXfXi i.,XF./ L.=X~ ~ $.5XI.1 + - o # a.;X1X1XP.@.fXfXfXfXfXfXfXfXfXfXfXfXfXfX",
"fXfXfXfXfXfXfXfXfXfXfXfXfXfX/ P.,XL.k.6XY.5XwX0XH.1 J A S Z , f.G.M.( fXfXfXfXfXfXfXfXfXfXfXfXfXfXfX",
"fXfXfXfXfXfXfXfXfXfXfXfXfXfXs ( L.=X=X*XU.Y.6X1XI.K < F P F S < o # fXfXfXfXfXfXfXfXfXfXfXfXfXfXfXfX",
"fXfXfXfXfXfXfXfXfXfXfXfXfXfXfXi 2 u * ~ H.H.I.J.U.H.K k A C , < 1 fXfXfXfXfXfXfXfXfXfXfXfXfXfXfXfXfX",
"fXfXfXfXfXfXfXfXfXfXfXfXfXfXfXfXfXfXfX^ 1 1 0 J H.J.G.a X X @ # fXfXfXfXfXfXfXfXfXfXfXfXfXfXfXfXfXfX",
"fXfXfXfXfXfXfXfXfXfXfXfXfXfXfXfXfXfXfXo.+ q T.0 < b T T.w $ f fXfXfXfXfXfXfXfXfXfXfXfXfXfXfXfXfXfXfX",
"fXfXfXfXfXfXfXfXfXfXfXfXfXfXfXfXfXfXfXR 2.;.] T.0 :.<.r T.' O.fXfXfXfXfXfXfXfXfXfXfXfXfXfXfXfXfXfXfX",
"fXfXfXfXfXfXfXfXfXfXfXfXfXfXfXfXfXfXU 2.0.w.;.` W.Y 2.>.r /. .fXfXfXfXfXfXfXfXfXfXfXfXfXfXfXfXfXfXfX",
"fXfXfXfXfXfXfXfXfXfXfXfXfXfXfXfXfXo.b 4.t.e.1.e [./.Y 3.5.{ /.` fXfXfXfXfXfXfXfXfXfXfXfXfXfXfXfXfXfX",
"fXfXfXfXfXfXfXfXfXfXfXfXfXfXfXfXfX* o z B u.<.q [.{.q g c .._.^.[ fXfXfXfXfXfXfXfXfXfXfXfXfXfXfXfXfX",
"fXfXfXfXfXfXfXfXfXfXfXfXfXfXfXfXfXd +XOXl.v Y T.'...v.v.p ^.|.}.c.) fXfXfXfXfXfXfXfXfXfXfXfXfXfXfXfX",
"fXfXfXfXfXfXfXfXfXfXfXfXfXfXfXfXO.%XsXaXyX*.w (.!.8 b.n.E `. X|.F.! * fXfXfXfXfXfXfXfXfXfXfXfXfXfXfX",
"fXfXfXfXfXfXfXfXfXfXfXfXfXfXfXi OXsXaXaXaXyX-.T.~.[ ! s.[ _.|.XX%.K p fXfXfXfXfXfXfXfXfXfXfXfXfXfXfX",
"fXfXfXfXfXfXfXfXfXfXfXfXfXfXi d %XeXyX&XaXaXtX] Q.(.| } ^.{. X X} fX% 2 fXfXfXfXfXfXfXfXfXfXfXfXfXfX",
"fXfXfXfXfXfXfXfXfXfXfXfXfXfXi o.*.*.%XO.dX%XoXy !.].]. X X X X|.} @ O * fXfXfXfXfXfXfXfXfXfXfXfXfXfX",
"fXfXfXfXfXfXfXfXfXfXfXfXfXfXu o.oXoXeXoXtXo.& _ '..X.X XXX X X|._ . O 0 fXfXfXfXfXfXfXfXfXfXfXfXfXfX",
"fXfXfXfXfXfXfXfXfXfXfXfXfXfXfXo.&XdXsXsXaXeXy !.'.].|. X X X.X~.` p u fXfXfXfXfXfXfXfXfXfXfXfXfXfXfX",
"fXfXfXfXfXfXfXfXfXfXfXfXfXfXfXfX*.eXeX3X3XOXy R.Q.'.}..X|..X~. .fXi p fXfXfXfXfXfXfXfXfXfXfXfXfXfXfX",
"fXfXfXfXfXfXfXfXfXfXfXfXfXfXfXfXfXu * 1 3 * O & 0 !.!.Q.~.!.' f fXfXfXfXfXfXfXfXfXfXfXfXfXfXfXfXfXfX",
"fXfXfXfXfXfXfXfXfXfXfXfXfXfXfXfXfXu o , , C Z F A 0 9 9 9 = $ O fXfXfXfXfXfXfXfXfXfXfXfXfXfXfXfXfXfX",
"fXfXfXfXfXfXfXfXfXfXfXfXfXfXfXfXfXfXO + + + > P D + X < C k C 6 1 fXfXfXfXfXfXfXfXfXfXfXfXfXfXfXfXfX",
"fXfXfXfXfXfXfXfXfXfXfXfXfXfXfXfXfX> 6 , , , C P H D A : k G F F : fXfXfXfXfXfXfXfXfXfXfXfXfXfXfXfXfX",
"fXfXfXfXfXfXfXfXfXfXfXfXfXfXfXfXfXo S F F F F P I H Z o , S P P > fXfXfXfXfXfXfXfXfXfXfXfXfXfXfXfXfX",
"fXfXfXfXfXfXfXfXfXfXfXfXfXfXfXfXfX- S F F I I I F G C O , Z Z A : fXfXfXfXfXfXfXfXfXfXfXfXfXfXfXfXfX",
"fXfXfXfXfXfXfXfXfXfXfXfXfXfXfXfXfX: Z k S S S S S Z 6 # C.@X@X~ p fXfXfXfXfXfXfXfXfXfXfXfXfXfXfXfXfX",
"fXfXfXfXfXfXfXfXfXfXfXfXfXfXfXfXfXX E C.Z.Z.Z.Z.Z.C.7 O #.=.=.O.fXfXfXfXfXfXfXfXfXfXfXfXfXfXfXfXfXfX",
"fXfXfXfXfXfXfXfXfXfXfXfXfXfXfXfXfX= p =.j.B.B.B.B.B.s & @ . = fXfXfXfXfXfXfXfXfXfXfXfXfXfXfXfXfXfXfX",
"fXfXfXfXfXfXfXfXfXfXfXfXfXfXfXfXfXfX.   fXfX  fX  fXfXfXfXfXfXfXfXfXfXfXfXfXfXfXfXfXfXfXfXfXfXfXfXfX",
"fXfXfXfXfXfXfXfXfXfXfXfXfXfXfXfXfXfXfXfXfXfXfXfXfXfXfXfXfXfXfXfXfXfXfXfXfXfXfXfXfXfXfXfXfXfXfXfXfXfX",
"fXfXfXfXfXfXfXfXfXfXfXfXfXfXfXfXfXfXfXfXfXfXfXfXfXfXfXfXfXfXfXfXfXfXfXfXfXfXfXfXfXfXfXfXfXfXfXfXfXfX"
};
