/* XPM */
static char *result[] = {
/* columns rows colors chars-per-pixel */
"50 50 242 2 ",
"   c #040403",
".  c #0A0607",
"X  c #0B0B0C",
"o  c #070809",
"O  c #140B0C",
"+  c #17150D",
"@  c #0B0B12",
"#  c #0B0A19",
"$  c #170D12",
"%  c #0F1013",
"&  c #0B141D",
"*  c #141213",
"=  c #15141A",
"-  c #1B1618",
";  c #24171A",
":  c #271A12",
">  c #29270E",
",  c #292416",
"<  c #322C13",
"1  c #3A3515",
"2  c #352C0E",
"3  c #1C1820",
"4  c #361A26",
"5  c #281B23",
"6  c #182C39",
"7  c #252221",
"8  c #38272C",
"9  c #383837",
"0  c #352C30",
"q  c #443C16",
"w  c #40360C",
"e  c #4C2839",
"r  c #401929",
"t  c #5B551A",
"y  c #534A18",
"u  c #6A5C1B",
"i  c #70571D",
"p  c #6A611B",
"a  c #776C1C",
"s  c #7A721C",
"d  c #5C5232",
"f  c #6D582A",
"g  c #756F2F",
"h  c #5D613D",
"j  c #21384B",
"k  c #4D3241",
"l  c #652A45",
"z  c #69344B",
"x  c #73314C",
"c  c #7A3955",
"v  c #70344E",
"b  c #304953",
"n  c #2D5A73",
"m  c #316578",
"M  c #584C4A",
"N  c #66564A",
"B  c #69495A",
"V  c #665458",
"C  c #735155",
"Z  c #5D7256",
"A  c #776C4C",
"S  c #795868",
"D  c #6E586A",
"F  c #4D6B73",
"G  c #72696C",
"H  c #5C5F61",
"J  c #84761D",
"K  c #92791D",
"L  c #836C1B",
"P  c #895A35",
"I  c #8B7A25",
"U  c #847731",
"Y  c #997A39",
"T  c #8C712D",
"R  c #843958",
"E  c #8B744C",
"W  c #864A69",
"Q  c #974367",
"!  c #87556C",
"~  c #97566C",
"^  c #9A5777",
"/  c #835874",
"(  c #A94B74",
")  c #B34B7A",
"_  c #A6557B",
"`  c #B8547C",
"'  c #A14C69",
"]  c #8C6A65",
"[  c #8B6778",
"{  c #96667D",
"}  c #8E786D",
"|  c #9E6B67",
" . c #6C836B",
".. c #9A891E",
"X. c #AA881D",
"o. c #B78B1E",
"O. c #888524",
"+. c #998A25",
"@. c #9A8C36",
"#. c #A58727",
"$. c #B48D27",
"%. c #A99627",
"&. c #B39728",
"*. c #B29933",
"=. c #AB8B37",
"-. c #B8A528",
";. c #A5A32C",
":. c #D4A71E",
">. c #C79728",
",. c #C6A826",
"<. c #D8A824",
"1. c #C7B42A",
"2. c #D8B828",
"3. c #CBB833",
"4. c #E6B928",
"5. c #E6B129",
"6. c #D8C42C",
"7. c #DAC934",
"8. c #ECC42B",
"9. c #E6C62A",
"0. c #F3CC2C",
"q. c #F2C429",
"w. c #EBD328",
"e. c #F5D22D",
"r. c #F9D72E",
"t. c #E4CE32",
"y. c #EBD433",
"u. c #FCDD33",
"i. c #F6D933",
"p. c #F7CC33",
"a. c #FEE234",
"s. c #FCE238",
"d. c #EFE030",
"f. c #AB8E4E",
"g. c #998576",
"h. c #AD8A6F",
"j. c #948158",
"k. c #35718E",
"l. c #2775AE",
"z. c #1E6399",
"x. c #507987",
"c. c #BD4D81",
"v. c #B95784",
"b. c #976B82",
"n. c #9B7488",
"m. c #867E81",
"M. c #A76988",
"N. c #B6658A",
"B. c #A5778C",
"V. c #A87C95",
"C. c #B77C99",
"Z. c #B36D90",
"A. c #B57EA4",
"S. c #CC558A",
"D. c #C65789",
"F. c #D3578E",
"G. c #DA5A94",
"H. c #D65993",
"J. c #CE578E",
"K. c #E25999",
"L. c #DC6298",
"P. c #C7779B",
"I. c #C36F97",
"U. c #E4649C",
"Y. c #D77EAA",
"T. c #E966A3",
"R. c #F36AA6",
"E. c #F36AA9",
"W. c #F467A5",
"Q. c #E078A4",
"!. c #73928F",
"~. c #5490AF",
"^. c #2086C1",
"/. c #5593C2",
"(. c #9D9598",
"). c #8C8886",
"_. c #AA8588",
"`. c #B79689",
"'. c #A98398",
"]. c #B8859C",
"[. c #B28D83",
"{. c #B7A597",
"}. c #B193A2",
"|. c #A6A5A7",
" X c #B8B7B9",
".X c #B2A9AC",
"XX c #C59391",
"oX c #C8AA96",
"OX c #DBB49E",
"+X c #CCA690",
"@X c #C688A7",
"#X c #C695AC",
"$X c #D78BB1",
"%X c #D39BB5",
"&X c #D798B7",
"*X c #D28DAD",
"=X c #EB85B8",
"-X c #F285BC",
";X c #F28ABD",
":X c #E496BB",
">X c #F492BF",
",X c #D9A2BD",
"<X c #D3BCA9",
"1X c #E9BDA8",
"2X c #DCC3B0",
"3X c #EAC3AB",
"4X c #F2C4AB",
"5X c #F4C7AB",
"6X c #EACBB7",
"7X c #F5CBB4",
"8X c #F7D4BB",
"9X c #EA9BC4",
"0X c #F49CCB",
"qX c #FA9CCB",
"wX c #F597C7",
"eX c #F78BC2",
"rX c #DCA5C4",
"tX c #ECABCC",
"yX c #E7A6C7",
"uX c #F6A2CB",
"iX c #FAA4CE",
"pX c #F4A9CC",
"aX c #FAA6D2",
"sX c #F4ADD3",
"dX c #FBADD3",
"fX c #FBAED9",
"gX c #EFB5D1",
"hX c #F5B4D4",
"jX c #FDB5D7",
"kX c #FCB8D7",
"lX c #FDB6D8",
"zX c #FDB9D9",
"xX c #F6BAD6",
"cX c #EEB6CF",
"vX c #C9C7C5",
"bX c #D8DCDB",
"nX c #D0CFCE",
"mX c #EBEBED",
"MX c #E4E6E6",
"NX c #F0F0EF",
"BX c #E6DED8",
"VX c None",
/* pixels */
"VXVXVXVXVXVXVXVXVXVXVXVXVXVXVXVXVXVXVXVXVX= % VXVXVXVXVXVXVXVXVXVXVXVXVXVXVXVXVXVXVXVXVXVXVXVXVXVXVX",
"VXVXVXVXVXVXVXVXVXVXVXVXVXVXVXVX% % VX# 1 +.O.< = VXVXVX7 - 5 VXVXVXVXVXVXVXVXVXVXVXVXVXVXVXVXVXVXVX",
"VXVXVXVXVXVXVXVXVXVXVXVXVXVXVXVXo t s p ;.3.6.1.a t a L g : 3 VXVXVXVXVXVXVXVXVXVXVXVXVXVXVXVXVXVXVX",
"VXVXVXVXVXVXVXVXVXVXVXVXVXVXVX= 6 g d.*.| @XD.Y y.9.,.Z x.j @ VXVXVXVXVXVXVXVXVXVXVXVXVXVXVXVXVXVXVX",
"VXVXVXVXVXVXVXVXVXVXVXVXVXVXVX& l.Z 1.+.v.Q.P.Y :.:.L z.^.z.X : VXVXVXVXVXVXVXVXVXVXVXVXVXVXVXVXVXVX",
"VXVXVXVXVXVXVXVXVXVXVXVXVXVX= o b h %...T Y I K K L p M m 6 o * VXVXVXVXVXVXVXVXVXVXVXVXVXVXVXVXVXVX",
"VXVXVXVXVXVXVXVXVXVXVXVX@ + u %.-.7.7.6.+.s %.1.6.6.t.w.6.1.%.p < X VXVXVXVXVXVXVXVXVXVXVXVXVXVXVXVX",
"VXVXVXVXVXVXVXVXVXVXVX@ 1 -.d.a.s.s.a.a.w.y.a.a.a.a.a.a.a.a.a.d.7.+.< % VXVXVXVXVXVXVXVXVXVXVXVXVXVX",
"VXVXVXVXVXX @ VX@ @ * t 6.a.a.a.a.a.a.a.a.a.a.a.a.a.a.a.a.a.a.a.a.a.7.p + % VXVXVXVXVXVXVXVXVXVXVXVX",
"VXVXVXVXVXo 1 p p I -.y.a.a.a.a.a.a.a.a.a.a.a.a.a.a.u.u.a.a.a.a.a.u.a.d.+.> $ VXVXVXVXVXVXVXVXVXVXVX",
"VXVXVXVXVXo y y.s.a.s.u.r.w.u.a.a.a.a.a.a.a.a.a.a.u.e.i.s.a.a.a.a.a.a.a.a.2.O.t q 1 1 > o VXVXVXVXVX",
"VXVXVXVXVX@ X t 1.u.s.u.r.%.w.r.u.u.a.a.s.u.u.u.r.9.:.d.a.a.a.a.a.u.u.r.e.e.0.8.9.2.3.1 % VXVXVXVXVX",
"VXVXVXVXVXo q I -.s.a.a.i.%.K 4.0.r.r.0.e.p.e.q.,.Y +.r.u.u.u.u.r.r.e.0.0.0.4.9.,.+.q X VXVXVXVXVXVX",
"VXVXVXVXVX@ < 1.i.i.e.e.4.Y ] E $.<.4.4.5.,.$.Y h.OX| -.i.p.p.0.0.0.q.q.4.4.4.9...y X o VXVXVXVXVXVX",
"VXVXVXVXVXVX@ 2 L o.>.o.K A 3X<XoXh.E f.f.h.+X3X7X7X1Xh.*.9.0.q.4.q.8.4.4.5.<.5.2.a O * VXVXVXVXVXVX",
"VXVXVXVXVXVXVXVX$ = q ,.1.A <XM g.8X6X7X8X2XA g.7X7X7X1Xh.i -.2.=.=.$.<.5.:.,.K q % VXVXVXVXVXVXVXVX",
"VXVXVXVXVXVXVXVXVX= 1 d.w.A 2X- N 8X8X8X8X1X- , 2X7X5X5XOXg w.2.N `.h.L -.%.w $ VXVXVXVXVXVXVXVXVXVX",
"VXVXVXVXVXVXX * - - p y.+.N 2Xg.{.8X8X8X7X6XC } 4X5X5X3Xh.I t.-.M {.{.Y w.w.q @ VXVXVXVXVXVXVXVXVXVX",
"VXVXVXVXVXVX. p %.1.e.+.F H 3X8X8X5X7X7X5X7X5X5X4X3Xh.j.@.U  .x.z.F U 9.p.p.&.1 : < , % VXVXVXVXVXVX",
"VXVXVXVXVXVX% < O.-.6.-.b z.H OX5X4XXXXXXX4X5X5X4X5Xh.d %.b /.~.l.l.g 0.q.4.0.2.,.1.s X VXVXVXVXVXVX",
"VXVXVXVXVXVXVXVXO % K e.3.@.O.@.j.+XOX1X1X1XOX+X`.] g -.1.g m z.l.Z %.p.q.q.4.4.2.X.: = VXVXVXVXVXVX",
"VXVXVXVXVXVXVXVXVXo ..9.,.*.f.f.#.U N ] ] ~ ~ ~ _ W E %.*.f.A H V U &.2.q.4.0.1.s p > - VXVXVXVXVXVX",
"VXVXVXVXVXVXVXVXVXX t E '.%XrX'.G ] E f P ] C.*X&XtX'.D #XtXfXfXuX$XB.A $.5.4.5.2.+.+ VXVXVXVXVXVXVX",
"VXVXVXVXVXVXVXVX* % S yXfXsXn.V.} A !.k.Z -.B.kXlX,XD rXzXzXzXxXdXqXqX$XC X.5.5.+.+ & VXVXVXVXVXVXVX",
"VXVXVXVXVXVXVXVX  M 0X0XuX@XG %Xg k./.l.m ,.| sXfXV.[ zXzXzXzXzXdXiXqXwXA.i <.5.2.> @ VXVXVXVXVXVXVX",
"VXVXVXVXVXVXVX7 o n.qXwXqXC.b.%Xg  .~.!.@.&.].fXfXC.S xXzXzXzXzXjXiX>XwXA.i :.<.6.2 @ VXVXVXVXVXVXVX",
"VXVXVXVXVXVXVXVXo k @XZ.@XB.V yX[.=.$.$.f.XXuXfXaX0XS V.sXpXrX9X$X@XM.*XC K <.2.I % VXVXVXVXVXVXVXVX",
"VXVXVXVXVXVXVXVXVX@ 3 9 } oXg.M.sX9X&X&XyXdXiXqXuXaX9XM ] @XG _.{.+XD g o.:.5.K + VXVXVXVXVXVXVXVXVX",
"VXVXVXVXVXVXVXVXVXo 9  X|.g.`.9 '.aXuXaXqXiXqX9X$X$XM.f #.$.f oX8XoX} g o.2.u * VXVXVXVXVXVXVXVXVXVX",
"VXVXVXVXVXVXVXVX@ 9 nXmXMX(.B c W A.0X0X9XA.M.M.M.v.c.) ' P d (.).|.2X Xg s o VXVXVXVXVXVXVXVXVXVXVX",
"VXVXVXVXVXVXVXX 7  XNXmX{.! D.T.U.' ! ^ ^ v.J.T.T.W.W.T.K.G.Q  XMXMXMXMXj.s > - , - * VXVXVXVXVXVXVX",
"VXVXVXVXVXVX@ 0 |.NXvX} B c.G.E.L.( [ / ( T.E.T.T.W.E.T.G.S.) S bXmXmXmXg.%.-.%.s * % VXVXVXVXVXVXVX",
"VXVXVXVXVX-  .nXNX|.W ) ) c.J.v.! #XxXgXV.! D.G.J.v.D.J.F.F.J.( } NXNXNX.Xf %.a < = VXVXVXVXVXVXVXVX",
"VXVXVXVXo ).nX X.XC Q D.S.c.^ n.tXzXzXlXlXrXM.b.D.H.F.D.) ) ) ( c |.NXmXbXH 8 $ @ VXVXVXVXVXVXVXVXVX",
"VXVXVX* * vXvXG ^ G.J.c.^ V.&XzXxXlXlXlXlXzXzXrX].b._ v.F.F.G.H.D.S MXmXmXbX(.z $ % VXVXVXVXVXVXVXVX",
"VXVXVXVXo ).nXH ' ( b.A.yXzXzXlXkXlXzXzXlXlXzXlXzXxXyX#XV.M.M._ _ V bXmXMXMXbXG O X VXVXVXVXVXVXVXVX",
"VXVXVXVXVX- 9 e B.,XxXtXgXxXlXlXkXkXkXkXkXzXlXlXhX,XxXzXzXzXhXsXyXn.|.|.rXbXbXm.0 o VXVXVXVXVXVXVXVX",
"VXVXVXVXVX* o [ zXxX,Xn.sXxXzXlXlXzXlXkXlXzXkXkXzX'.%XzXzXzXlXlXlXhXV.G ).|.|.b.%Xk o VXVXVXVXVXVXVX",
"VXVXVXVXVXo M gXzXxXb.,XlXzXzXlXzXkXkXzXzXzXzXkXzX,X[ xXlXlXfXdXdXdXpXb.}.:X$X9XqX*X8 o VXVXVXVXVXVX",
"VXVXVXVXo ; %XzXzX#X{ xXzXzXzXlXlXkXzXzXzXzXlXkXzXhXS %XlXfXdXsXdXpXdX&XS 9X0XwX>X0XC.$ X VXVXVXVXVX",
"VXVXVXVX  S lXxXzX[ #XzXxXlXzXzXkXkXkXlXkXzXlXzXzXzXV.[ jXdXdXdXaXaXaXaXM.b.wXeX;X;X9XS   VXVXVXVXVX",
"VXVXVXX ; ,XzXzX,XS hXzXzXzXlXlXlXkXlXkXkXzXkXkXlXzXrXD uXdXuXiX0XaXqX0X9XB Y.eX-X=X;X$X8   VXVXVXVX",
"VXVXVX  V xXkXzX[ n.zXxXxXkXlXzXkXzXzXzXkXkXkXlXlXzXxXS @XaXiXqX0X0X0X0X0XM.S -X-X=X-XwXb.o VXVXVXVX",
"VXVX% @ ].lXhXtXV ,XzXzXzXzXlXzXzXlXkXkXlXzXkXlXlXlXzXn.b.iXqX0X0X0X0XwXwXY.z Q.-X-X-X-X&X0 o VXVXVX",
"VXVXX 5 %XuXpX@XV xXzXzXzXlXzXkXzXzXzXzXlXzXzXzXlXxXzX#XB yXqX0X0X0XwXqXeXwXB b.Y.Y.eXQ.;XS X VXVXVX",
"VX* $ S N.v.` B z Z.].#X%XyXtXtXhXhXhXhXhXhXsXpXyX%X#XZ.e ^ Z.P.P.P.I.I.N.v.c l c.v.v.) _ ( c $ VXVX",
"- o R W.E.W.E.R ` T.L.H.D.N.N.D.N.N.N.M.N.N.N.N.N.v.F.U.v Q G.S.S.S.J.S.S.F.c.l H.K.K.K.G.G.G.v . VX",
"$ X r l R c R 4 z ) J.L.T.R.R.R.R.R.R.R.R.R.E.E.E.E.R.T.R l D.J.J.H.H.J.D.) x 5 8 l x x x x e 5 . X ",
"VXVXVXVX. o . X X % - 4 r l z c R Q Q Q Q Q Q Q c x e 4 $ X $ ; ; 4 4 ; $ O .   VX            VXVXVX",
"VXVXVXVXVXVXVXVXVXVXVXVXVXo o X   X . . o . .         VXVXVXVXVXVXVXVXVXVXVXVXVXVXVXVXVXVXVXVXVXVXVX"
};
