/* XPM */
static char *zyro_image1686409289[] = {
/* columns rows colors chars-per-pixel */
"50 50 203 2 ",
"   c None",
".  c #010100",
"X  c #0C0B04",
"o  c #0B0B0B",
"O  c #090706",
"+  c #120A0D",
"@  c #110F07",
"#  c #161505",
"$  c #151515",
"%  c #1B1B1B",
"&  c #181715",
"*  c #150F12",
"=  c #221B08",
"-  c #20171B",
";  c #2E2607",
":  c #352D05",
">  c #3E3905",
",  c #2A1C22",
"<  c #3C1827",
"1  c #212121",
"2  c #2B2B2B",
"3  c #2E2227",
"4  c #37282E",
"5  c #372A30",
"6  c #392B32",
"7  c #343434",
"8  c #3B3B3A",
"9  c #373739",
"0  c #2F2F30",
"q  c #5B280B",
"w  c #553D0C",
"e  c #4D3711",
"r  c #4C2838",
"t  c #403F39",
"y  c #4D2C20",
"u  c #554F08",
"i  c #6C4C0C",
"p  c #625B04",
"a  c #6F5E1B",
"s  c #7E7301",
"d  c #716704",
"f  c #43423A",
"g  c #765537",
"h  c #7A742F",
"j  c #5E3C4A",
"k  c #7A2849",
"l  c #314641",
"z  c #3B7D69",
"x  c #434343",
"c  c #4C4C4C",
"v  c #535353",
"b  c #5B5B5B",
"n  c #6B4354",
"m  c #7A5556",
"M  c #5C6656",
"N  c #785061",
"B  c #50686C",
"V  c #626262",
"C  c #6C6C6C",
"Z  c #737373",
"A  c #7E7E7E",
"S  c #747D7F",
"D  c #837907",
"F  c #8F7614",
"G  c #AB7210",
"H  c #8A5526",
"J  c #8C6929",
"K  c #897327",
"L  c #9E652A",
"P  c #913359",
"I  c #993D63",
"U  c #A73765",
"Y  c #B53C6B",
"T  c #BC3C70",
"R  c #C23E73",
"E  c #C83F77",
"W  c #984347",
"Q  c #8B4C58",
"!  c #AA4753",
"~  c #866443",
"^  c #847844",
"/  c #866A53",
"(  c #AB7C53",
")  c #954666",
"_  c #835166",
"`  c #88556A",
"'  c #975974",
"]  c #8F526B",
"[  c #A9426D",
"{  c #AD4D75",
"}  c #BA4875",
"|  c #A65677",
" . c #A65063",
".. c #9C627B",
"X. c #847174",
"o. c #A3657D",
"O. c #A37161",
"+. c #C34176",
"@. c #CE417B",
"#. c #C84274",
"$. c #D2427D",
"%. c #498664",
"&. c #718E4F",
"*. c #998B0C",
"=. c #AA9504",
"-. c #B5940E",
";. c #B7A700",
":. c #AFAC18",
">. c #969927",
",. c #A29724",
"<. c #94A729",
"1. c #C4B301",
"2. c #CCBA04",
"3. c #C6B10B",
"4. c #C0AF00",
"5. c #C6B62F",
"6. c #DAC601",
"7. c #D8C502",
"8. c #EED901",
"9. c #E7D200",
"0. c #E0CB00",
"q. c #FFE900",
"w. c #F8E200",
"e. c #8A895A",
"r. c #90825B",
"t. c #8E8B4B",
"y. c #A08259",
"u. c #91837D",
"i. c #A28163",
"p. c #B7B36E",
"a. c #C8BD4E",
"s. c #7F7F80",
"d. c #BD5F82",
"f. c #A66883",
"g. c #AA6B86",
"h. c #AD6D88",
"j. c #A66681",
"k. c #B46C8B",
"l. c #B5728D",
"z. c #BE7F80",
"x. c #B77390",
"c. c #BB7493",
"v. c #AD7789",
"b. c #DB4582",
"n. c #D64381",
"m. c #E54888",
"M. c #EC4A8D",
"N. c #E14686",
"B. c #F44E92",
"V. c #F04C8F",
"C. c #C47B9B",
"Z. c #CA7E9E",
"A. c #C17696",
"S. c #1B9599",
"D. c #0996BC",
"F. c #5D818A",
"G. c #818181",
"H. c #8C8C8C",
"J. c #9A8D85",
"K. c #969696",
"L. c #9B9B9B",
"P. c #8E9A9C",
"I. c #B5958B",
"U. c #A58693",
"Y. c #A59490",
"T. c #B5A48B",
"R. c #98A5A2",
"E. c #A8A8A8",
"W. c #BBBBBB",
"Q. c #B8B7B6",
"!. c #AEB5AE",
"~. c #C7858A",
"^. c #C9BA95",
"/. c #C6A998",
"(. c #CE81A1",
"). c #D385A6",
"_. c #D887A9",
"`. c #DA89AC",
"'. c #D687A9",
"]. c #E38EB2",
"[. c #E690B4",
"{. c #E992B7",
"}. c #EC95BA",
"|. c #F197BD",
" X c #F399BF",
".X c #DFB3AE",
"XX c #D3D1B9",
"oX c #E6C8B6",
"OX c #F59AC0",
"+X c #F89BC2",
"@X c #CAB9C0",
"#X c #C2C2C2",
"$X c #CDCCCD",
"%X c #D1D1D1",
"&X c #DBDBDB",
"*X c #CFD9D9",
"=X c #FDDAC5",
"-X c #F1DBCD",
";X c #E3E3E3",
":X c #EBECEC",
">X c #E8E7E4",
",X c #F4F4F4",
"<X c #FEFEFE",
/* pixels */
"                . H.<X<X<X<X<X<X&X8 V %X<X<X<X<X<X<X,X%XK.    Q.,X<X<X<X<X#X$                       ",
"          1 x c 2 $X<X<X<X<X<X<XG.C :X<X<X<X<X,X<X<X<X<X,XZ H.<X<X<X<X<X<X&X2 9                     ",
"      % v C A b v ,X<X<X<X<X<X<XG.V >X<X<X<X<X<X<X<X<X,XQ.c E.<X<X<X<X<X<X&X7 Z A C v 2 O           ",
"  O 7 C A G.s.7 K.<X<X<X<X<X<X<X,XA x L.%X>X,X:X>X%XK.V 2 c &X<X<X<X<X<X<X&X7 C A A A Z v 1 O       ",
"O 7 X.F.A A Z 7 &X<X<X,X,X;X$XQ.H.v 7 C V x 9 c c 4 t #X%XF.f Z #X,X<X<X<X&X1 % 9 C s.A F.X.8 X     ",
"% C u.A A A x 2 H.G.V c 8 2 & o O x &X<XW.% . c Z Z 3 F.<X<XX.X & c E.>X<X&X2 . . & c A A u.X.8 O   ",
"b A A s.A 7 . O . . . . . . . . x ;X<X:Xc . o b u.S 2 o E.<X:X9 . . o 2 Z K.% . . . o 7 Z G.u.X.2 . ",
"A A A s.c O . . . . . . . . . 1 $X<X<XK.O . o V A A 0 O l .XE.9 O . . . . o O . . . . O 7 Z A F.V * ",
"u.A F.Z % . . . . . . . . . . 2 C Z C , . . o V F.X.2 O O $ O . . . . . . . . . . . . . O 8 X.u.&.l ",
"S A &.r . . . . . . . . . . . O . . . O & O o V G.u.2 O . . . . . . . . . . . . . . . . . o c F.f.s.",
"s.s.C * . . . . . . . . . . . . = w X w F $ o b G.A 1 . . . . . . . . . . . . . . . . . . . % Z f.H.",
"f.s.x O . . . . . . . . . . o ; i G G -.a l # c G.A & . . . . . . . . . . . . . . . . . . . o b F.F.",
"l c & O . . O . . . O . . . O e i q q e u p ; 0 c x o O . . . . . . . . . . . . . . . . . . O 0 v v ",
"v v v v v v v v v v v v v v v v v v c c v v c v v v v v v v v v v v v v v v v v v v v v v v v v v v ",
"F.G.G.G.X.u.s.F.A F.J.F.X.G.G.G.u.F.X.F.G.G.G.G.s.G.G.G.G.G.A G.G.G.G.G.A G.G.G.G.G.A G.G.G.u.F.&.F.",
"G.G.G.G.F.J.s.s.A X.u.s.G.G.G.G.u.u.G.u.A s.s.A s.s.s.s.G.s.A G.G.G.G.A G.G.G.A G.A A G.G.G.X.u.v.s.",
"9 8 9 9 9 9 9 9 l 8 t 8 8 8 8 f f x j l c l x t f t 8 f f f 8 9 9 9 8 7 9 9 t l j l 8 9 9 8 7 9 9 8 ",
"x . . . . . . % b V V 0 . # s 1.;.h J.Y.T.J.F.B >.F >.;.;.s . . . . . . . * v V b v * . . . . . * b ",
"v O . . . . . 1 X.G.G.c . = *.6.7.r.P.R.=X-X*X.X5.>.&.8.q.6.> > p O . . . $ Z G.G.Z $ . . . . . $ Z ",
"v . . . . . . 1 A G.G.x . . O : 6.:.E.Q.oX=X-X^.4.B D.:.q.w.9.8.1.# . . . $ Z A F.Z & . . . . . $ Z ",
"v . . . . . . 1 A A F.x . . . . s 2.e.oXoX.X=XT.D :.>.2.6.8.w.8.s O . . . $ Z s.u.Z & . . . . . $ Z ",
"b . . . . . . 1 A A u.x . . . . O p z S J.I.^.u.m J ( A.I.( 3.w.9.p . . . $ Z s.X.Z & . . . . . $ Z ",
"v O . . . . . 1 s.H.f.l . . . @ p =.e.Q.X.g Q { U ' }.+X+X}.O.0.q.1.# . . $ Z s.G.Z $ . . . . . $ Z ",
"v . . . . . . 1 s.&.G.x . . . o s K E.:Xv.'  .} o.l.+X|.+X[./ 4.w.6.# . . $ Z s.G.A $ . . . . . $ Z ",
"v O . . . . . 1 S &.v.l o O . . X j U.:XX.m %.i._.' [.OX`.v.C t.7.6.; . X $ Z s.s.Z & . . . . . $ Z ",
"b . . . . . . % u.G.s.l . . . * V G.%X@X..M S.K [.(.g.o.K r..X;X^.p.h u d & s.F.A Z $ . . . . . $ Z ",
"v O . . . . . 1 X.G.G.x . . . b ;X,XR.N / m i.~. X X}.J =.>.p.$X>X:X&XXXT.0 Z f.s.Z $ . . . . . $ Z ",
"v . . . . . . 1 X.F.G.x . . O s.W.C $ @ =.-.v. X X`.A.P ! P g *.,.5.a.r.l 1 Z &.G.Z & . . . . . $ Z ",
"v O . . . . . 1 A s.s.x . . . o o . X D 2.L P (.A.[ @.m.M.n.n.#.W =.w.u . # X.F.F.A & . . . . . $ Z ",
"v . . . . . . % A G.s.x . . . . . . . e ! R $.+.+.N.@.T T $.M.B.V.W ;.D @ & Z u.X.X.& . . . . . $ Z ",
"v O . . . . . 1 G.G.G.x . . . . . . + P M.E E b.+.N.R T @.b.n.$.$.$.Y y . $ Z G.A Z $ . . . . . $ Z ",
"b . . . . . . 1 %.f.G.x . . . . . + P b.R E E { k.[ @.n.E R R E b.M.B.P . $ X.X.F.Z & . . . . . $ Z ",
"v O . . . . . % A A G.x . . . . . < b.M.N.R { '. X(.| [ R b.m.V.V.V.m.k . $ Z s.s.Z $ . . . . . $ Z ",
"v . . . . . . 1 A A G.x . . . . . , ) { | A.{. X X X|.'.x.' ) ) I I ) r . $ Z s.s.Z & . . . . . $ Z ",
"v O . . . . . 1 A A G.x . . . . % h.{.{. XOX X X X XOXOXOXOX}.`._.`.}.C.$ * Z f.s.Z & . . . . . $ Z ",
"v . . . . . . 1 Z G.G.x . . . * o. X X].}. X X X XOX|.|.|.|.OX X X|. X|.v $ Z H.A Z & . . . . . $ Z ",
"b . . . . . . 1 %.f.G.x . . o _ |. X_.(. X X X X X X X[.`. X|.OX X_.].OXc., B F.s.Z & . . . . . $ Z ",
"b . . . . . . 1 G.G.G.x . . j {. X[.x.}. X X X X XOX|.[.c. XOXOX X].C. X'.5 s.f.A Z $ . . . . . $ Z ",
"v . . . . . . % s.G.G.x . 4 '.OX|.l.'. X X X X X X X X{.c.OXOX|. X|.c.{.'.6 Z &.s.Z $ . . . . . $ Z ",
"v . . . . . . 1 A G.G.x + g.OXOX(.c. X X X X X X X X X}.v.}.OXOX XOXZ.).`.6 Z A G.Z & . . . . . $ Z ",
"v O . . . . . 1 A s.f.l c |. X[.f.{. X X X X X X X X X}.h.}. X X X X].c.`.6 Z G.&.s.$ . . . . . % Z ",
"v . . . . . . 1 A s.u.x _ OX Xl.(. X X X X X X X X X X{.h.|. X X X X}.l.).6 Z X.s.s.$ . . . . . $ Z ",
"v O . . . . . 1 S A X.f _ OX].j.|. X X X X X X X X X X[.g.|. X X X X Xx.C.6 Z F.s.s.+ . . . . . $ Z ",
"b . . . . . . 1 A A F.c _ OXl.Z. X X X X X X X X X X|.].g.|. X X X X XA.x.6 C s.s.Z * . . . . . $ Z ",
"v O . . . . . % X.F.F.x _ {.o.}. X X X X X X X X X X X_.h.OX X X X X X(.f.5 Z s.s.Z & . . . . . $ Z ",
"v . . . . . . 1 u.u.u.x ` C.x.OX X X X X X X X X X X+XC.x.OX X X X X X(.j.6 Z s.s.Z $ . . . . . $ Z ",
"v O . . . . . 1 A A G.x _ g._.OX X X X X X X X X X X Xk.Z.OX X X X X X(.' 6 Z H.s.Z $ . . . . . $ Z ",
"v . . . . . . % A A X.x N ..{. X X X X X X X X X X X X..`.OX X X X X XA...y Z X.F.Z & . . . . . $ Z ",
"b . . . . . . 1 S A X.f n o.|.|. X X X X X X X X X X[.' |.OX|.OX X X{.' N , Z X.&.s.% . . . . . % Z ",
"b . . . . . O 1 A A F.c r Q [.|.|. X XOX X X X X|.OXc.] {.OX X}.).g.Q Y U , Z f.F.Z $ . . . . . $ Z "
};
