/* XPM */
static char *unnamed1678622655[] = {
/* columns rows colors chars-per-pixel */
"50 50 76 1 ",
"  c None",
". c #5A5A5A",
"X c #5B5B5B",
"o c gray36",
"O c #5D5D5D",
"+ c gray37",
"@ c #5F5F5F",
"# c #606060",
"$ c gray38",
"% c #626262",
"& c gray39",
"* c #646464",
"= c #656565",
"- c gray40",
"; c #676767",
": c #686868",
"> c DimGray",
", c #6A6A6A",
"< c gray42",
"1 c #6C6C6C",
"2 c #6D6D6D",
"3 c gray43",
"4 c #6F6F6F",
"5 c gray44",
"6 c #717171",
"7 c #727272",
"8 c gray45",
"9 c #747474",
"0 c gray46",
"q c #767676",
"w c #777777",
"e c gray47",
"r c #797979",
"t c gray48",
"y c #7B7B7B",
"u c #7C7C7C",
"i c gray49",
"p c #7E7E7E",
"a c gray50",
"s c #808080",
"d c #818181",
"f c gray51",
"g c #838383",
"h c #848484",
"j c gray52",
"k c #868686",
"l c gray53",
"z c #888888",
"x c #898989",
"c c gray54",
"v c #8B8B8B",
"b c gray55",
"n c #8D8D8D",
"m c #8E8E8E",
"M c gray56",
"N c #909090",
"B c gray57",
"V c #929292",
"C c #939393",
"Z c gray58",
"A c #959595",
"S c gray59",
"D c #979797",
"F c #989898",
"G c gray60",
"H c #9A9A9A",
"J c #9B9B9B",
"K c gray61",
"L c #9D9D9D",
"P c gray62",
"I c #9F9F9F",
"U c #A0A0A0",
"Y c gray63",
"T c #A2A2A2",
"R c #A4A4A4",
"E c #A5A5A5",
/* pixels */
"          IJJnnDJIJDDDBDBDBDBDBDBDJDJnnnnBnBnnu###",
" IIJJDIUIIJJDBBBJJJDDDDBDBDBDBDBBDJJJBnnnnBnBnu###",
"IIIJDDJIUIJIDnBDJIJDDDDBBBDDDBBDBDDJDBnnnnnnnnu###",
"IIIDBBDDDDBBnclnBDBnBnnnnlffcclccllllfflllllffw##*",
"JIIBccclllccfttulccllclcfw88tfuffuuttffuuufutt8###",
"JJJBclclccllfttulllclllcfw8wuufuuuuttuufufuutu8#*#",
"JDJnfffffffffuufffflllllftttffffufuttufuutww88:@#@",
"BBBlttttttttfccfttuuuuuufuuflllffuffufuut884:4*@@@",
"nBBlttttttttuccfttuufufuufufcllfufufufufww844:*@XX",
"BBBlwwwtttuuflluuuuuuuutuutufffuuufufufuuuuw44*@@@",
"DDDf88tuufllluffufuttttttwttttttttufufuflllu44:@@@",
"DDDl88tufflcffuufuutwttttttwtwttttuufufufccu4::@@@",
"DBDl88wuuflffutuuuuuuufufuuuuuufuuuttuuflclu84:@@@",
"BDBlttttttttttttttucllllllclllllllt8wtfuflcu8w:@@X",
"DBDlwwtttwttttttttuclllclclllcclllt88tuffccu88:@XX",
"BDBltttwtttwttttwwtllflflflffffffftwttfuuffu88:#@@",
"BDBlwtttwttttfut88wufuffuutttttw8wtfuuwtttt8:4**##",
"BBBlttwwttwtuuft88tufuufuttttww888tuftttwtw8::*###",
"BDBlwwwttwwwtttw88wttttttwwwwww888wtwwwwwww8:4:###",
"nnnf88wtww8w8884444444848ww8ww8888::*:4:8888884##*",
"nnnf888www8w84444484448448888w8844***:444888884###",
"lllt488888848::::::::::::444444444:**::::4484:*@##",
"****@#######@@@@@@@@@@@@#@@X#@@#***#*#*######@@@@@",
"@@X@@@@@@@X@X@@@@@X@@@X@@XXX@X@@###**#######@@@XX@",
"####*#*###**:**::*****@@@***::*::4:*:::::::*:::::4",
"lclccccncccnBDBBBDBnnf#@:BJJDBBDBnclcnnnBBDnnnBDDD",
"DDDDDDJDJDDDJJJJIIJDJc*@4JRRIIIIJJBnnDDJIJIDBnDJJI",
"BBBBDDBDBDDDDDJDDDDBBl#@:IUUJJJDJDBcnnDBDDDDnnBDDD",
"fuffffflluuuulflllfww4@X:BDDnccllffffffuuufuuuuffu",
"tttttwuuftw8tuufuut48:@@*nBBcllfufufuttttttttwtttw",
"ttttttufut88tufuuft84:@@:BDBcllffufuuuttttutttwttt",
"fffffluttw88wuuulluww4#@:BDBlffuufufufuuflluwtttwt",
"clclcluttw88wttuclfww8##4BDBffufuufuufuffclfttwttw",
"clcllcftww8wwwtulcfww4#@:BDDfufuufuffufuflcfttwttw",
"flfffffuuufufffffft844#@:BJDclftwwwwwtufflfuuutttt",
"uufufufuullcllclfut44:#@4DJJcclw88888tfuuuuffuutwt",
"fuufufufufclllclfut44:@@:DIDcclw88888tufuffufuuuwt",
"uuttutttufllcllfutw4:*@@:BDDlufuwtttttututtttttttt",
"ttwwttwwtflclllftt84::@X*BDnuttuufufuutwtttwtwtttw",
"tttttttttfllcccftww:::@@:nBButtufufufutttttwtttttw",
"uuuuuuttttffuffuww4:::##:nBBfffflffuuffutttufuutww",
"fufufuttttwttttw884::**#4nBDcllllllfffcluttullfw88",
"ufufufuttwttwwtw888:4*##:nBBclcclcfuulccfttulcf888",
"8w8w8w8888888888888444##:cBnuuuuufttttuut88wttw448",
":4::::::*444::4488wwt8*#4lcl8:48www88444444:::::::",
"::::4::4::444::488wwww*#:lcl844www88844:4444:::4::",
"***:*****::::**::44:4:#@#www:::4884:44::::::******",
"#######@##@@@@@@@@@@@@X@@@@@@@###*#####@@@@@#@@#@@",
"########@@@@@@@@@@@X@X@X@X@X@@@@#*######@X@X@X@X@X",
"######@#@@@@@@@@@@@@X@X@X@X@@@@@*#####@@@@X@X@X@X@"
};
